<svg width="107" height="53" viewBox="0 0 107 53" fill="none" xmlns="http://www.w3.org/2000/svg">
<rect width="107" height="53" fill="#EFB41C"/>
<path d="M15.5844 11.535L17.1594 19.98L18.5244 20.115C18.5244 20.385 18.4394 20.68 18.2694 21H14.8194L14.7744 20.475C15.0744 20.345 15.4444 20.24 15.8844 20.16L14.2794 11.745L12.2994 20.28H10.8144L8.08443 11.715L6.86943 19.98L8.14443 20.1C8.14443 20.38 8.05943 20.68 7.88943 21H4.43943L4.39443 20.475C4.83443 20.315 5.27443 20.195 5.71443 20.115L7.03443 11.415C6.42443 11.325 5.93943 11.22 5.57943 11.1L5.63943 10.5H9.13443L11.5194 18.72H11.5794L13.4394 10.5H16.7844C16.9544 10.82 17.0394 11.13 17.0394 11.43C16.3894 11.5 15.9044 11.535 15.5844 11.535ZM23.0946 20.16C23.5346 20.16 24.2246 19.95 25.1646 19.53C25.3546 19.79 25.4546 20.02 25.4646 20.22C24.9546 20.52 24.4546 20.755 23.9646 20.925C23.4746 21.095 23.1246 21.18 22.9146 21.18C21.7546 21.18 20.8696 20.835 20.2596 20.145C19.6496 19.445 19.3446 18.47 19.3446 17.22C19.3446 15.97 19.6396 14.99 20.2296 14.28C20.8296 13.56 21.7246 13.2 22.9146 13.2C23.8346 13.2 24.5346 13.53 25.0146 14.19C25.5046 14.85 25.7496 15.735 25.7496 16.845C25.6696 16.985 25.6046 17.08 25.5546 17.13L20.7246 17.055C20.7346 18.065 20.9096 18.835 21.2496 19.365C21.5996 19.895 22.2146 20.16 23.0946 20.16ZM24.3846 16.2C24.3846 15.54 24.2646 15.03 24.0246 14.67C23.7846 14.3 23.3846 14.115 22.8246 14.115C22.2646 14.115 21.7646 14.22 21.3246 14.43C21.0246 15.03 20.8346 15.645 20.7546 16.275C21.5446 16.265 22.7546 16.24 24.3846 16.2ZM30.8304 20.01C31.1204 20.01 31.4454 19.95 31.8054 19.83C32.1654 19.7 32.4604 19.545 32.6904 19.365C32.6504 17.235 32.6154 15.62 32.5854 14.52C31.9654 14.52 31.5054 14.46 31.2054 14.34L31.2654 13.56C32.1154 13.41 32.7804 13.335 33.2604 13.335C33.7504 13.335 34.0604 13.345 34.1904 13.365C34.1904 13.545 34.1604 13.785 34.1004 14.085C34.0504 14.385 34.0154 14.55 33.9954 14.58L33.8154 19.935C34.3454 19.965 34.7754 20.025 35.1054 20.115L35.0754 20.88C34.6354 21.02 34.2104 21.09 33.8004 21.09C33.3904 21.09 33.1404 21.085 33.0504 21.075C32.8604 20.695 32.7504 20.345 32.7204 20.025C32.2304 20.395 31.7754 20.68 31.3554 20.88C30.9454 21.08 30.6754 21.18 30.5454 21.18C29.6654 21.18 29.0254 20.945 28.6254 20.475C28.2354 19.995 28.0404 19.295 28.0404 18.375C28.0404 18.365 28.0854 17.085 28.1754 14.535C27.5954 14.535 27.0604 14.47 26.5704 14.34L26.6304 13.56C27.4804 13.41 28.1404 13.335 28.6104 13.335C29.0804 13.335 29.3804 13.345 29.5104 13.365C29.5104 13.605 29.4804 13.87 29.4204 14.16C29.3604 14.45 29.3254 14.59 29.3154 14.58L29.3304 17.82C29.3304 18.58 29.4254 19.135 29.6154 19.485C29.8054 19.835 30.2104 20.01 30.8304 20.01ZM43.9478 21.195C41.0078 21.195 39.5378 19.35 39.5378 15.66C39.5378 13.91 39.8928 12.58 40.6028 11.67C41.3228 10.76 42.4678 10.305 44.0378 10.305C45.2978 10.305 46.4178 10.655 47.3978 11.355C47.3978 11.915 47.3278 12.625 47.1878 13.485C47.0478 13.515 46.7578 13.53 46.3178 13.53L45.8678 11.67C45.1578 11.54 44.5878 11.475 44.1578 11.475C43.3678 11.475 42.6728 11.585 42.0728 11.805L41.7878 11.91C41.7278 12.01 41.6528 12.16 41.5628 12.36C41.4728 12.55 41.3528 12.955 41.2028 13.575C41.0628 14.195 40.9928 14.83 40.9928 15.48C40.9928 16.89 41.2228 18.01 41.6828 18.84C42.1528 19.67 42.8978 20.085 43.9178 20.085C44.6478 20.085 45.1978 20.01 45.5678 19.86C45.6678 19.81 45.8128 19.735 46.0028 19.635L46.3178 17.835L47.1878 17.88C47.3378 18.91 47.4128 19.745 47.4128 20.385C47.2028 20.545 46.7478 20.72 46.0478 20.91C45.3578 21.1 44.6578 21.195 43.9478 21.195ZM54.6701 16.095L54.5951 19.965C55.0251 19.995 55.4551 20.065 55.8851 20.175L55.8551 20.7C55.6951 20.78 55.4051 20.87 54.9851 20.97C54.5751 21.06 54.1701 21.105 53.7701 21.105C53.5901 20.745 53.4901 20.4 53.4701 20.07C52.3301 20.82 51.5301 21.195 51.0701 21.195C50.3601 21.195 49.7901 21.005 49.3601 20.625C48.9301 20.245 48.7151 19.715 48.7151 19.035C48.7151 17.465 49.6751 16.655 51.5951 16.605C52.7151 16.575 53.2801 16.56 53.2901 16.56L53.2751 16.05C53.2551 15.36 53.1251 14.865 52.8851 14.565C52.6451 14.255 52.2151 14.1 51.5951 14.1C51.3351 14.1 51.0551 14.16 50.7551 14.28L50.3951 15.78C50.3451 15.79 50.2601 15.795 50.1401 15.795L49.5251 15.75C49.3651 15.32 49.2801 14.725 49.2701 13.965C49.4601 13.865 49.8951 13.715 50.5751 13.515C51.2551 13.305 51.6901 13.2 51.8801 13.2C52.9001 13.2 53.6201 13.425 54.0401 13.875C54.4601 14.325 54.6701 15.065 54.6701 16.095ZM51.4001 20.175C51.6901 20.175 52.3601 19.85 53.4101 19.2L53.3351 17.325C52.6551 17.385 52.0851 17.44 51.6251 17.49C51.1651 17.54 50.7951 17.675 50.5151 17.895C50.2351 18.105 50.0951 18.44 50.0951 18.9C50.0951 19.75 50.5301 20.175 51.4001 20.175ZM61.406 13.2C62.366 13.2 63.061 13.44 63.491 13.92C63.921 14.39 64.136 15.11 64.136 16.08C64.136 16.36 64.096 17.66 64.016 19.98L65.276 20.1C65.276 20.38 65.191 20.68 65.021 21H61.571L61.526 20.475C61.986 20.315 62.436 20.195 62.876 20.115C62.816 17.495 62.761 16.04 62.711 15.75C62.671 15.45 62.601 15.19 62.501 14.97C62.401 14.75 62.251 14.595 62.051 14.505C61.851 14.415 61.586 14.37 61.256 14.37C60.596 14.37 59.956 14.53 59.336 14.85C59.276 17.13 59.236 18.84 59.216 19.98L60.476 20.1C60.476 20.38 60.391 20.68 60.221 21H56.771L56.726 20.475C57.186 20.315 57.636 20.195 58.076 20.115C58.016 17.575 57.966 15.695 57.926 14.475C57.376 14.445 56.936 14.385 56.606 14.295L56.666 13.515C57.206 13.365 57.991 13.29 59.021 13.29C59.141 13.47 59.231 13.73 59.291 14.07C59.721 13.84 60.151 13.64 60.581 13.47C61.021 13.29 61.296 13.2 61.406 13.2ZM67.0792 20.07L66.9592 14.415H65.8042L65.7592 13.89C65.8592 13.82 66.1492 13.69 66.6292 13.5L67.8592 11.58C68.0592 11.6 68.2142 11.65 68.3242 11.73L68.3092 13.38C69.0592 13.38 69.6742 13.43 70.1542 13.53C70.1542 13.8 70.0692 14.095 69.8992 14.415H68.2792C68.2592 15.615 68.2392 17.435 68.2192 19.875C68.7792 19.905 69.3392 20.005 69.8992 20.175L69.8842 20.7C69.7442 20.79 69.3842 20.895 68.8042 21.015C68.2342 21.135 67.7642 21.195 67.3942 21.195C67.3442 21.115 67.2792 20.945 67.1992 20.685C67.1192 20.415 67.0792 20.21 67.0792 20.07ZM73.884 11.955C73.624 12.015 73.369 12.045 73.119 12.045C72.879 12.045 72.639 12.03 72.399 12C72.339 11.72 72.309 11.44 72.309 11.16C72.309 10.87 72.319 10.655 72.339 10.515C72.559 10.465 72.789 10.44 73.029 10.44C73.279 10.44 73.544 10.45 73.824 10.47C73.884 10.73 73.914 10.985 73.914 11.235C73.914 11.475 73.904 11.715 73.884 11.955ZM71.154 13.53C72.004 13.38 72.664 13.305 73.134 13.305C73.604 13.305 73.904 13.315 74.034 13.335C74.034 13.575 74.004 13.84 73.944 14.13C73.884 14.42 73.849 14.56 73.839 14.55L73.704 19.98L74.964 20.1C74.964 20.38 74.879 20.68 74.709 21H71.259L71.214 20.475C71.674 20.315 72.124 20.195 72.564 20.115C72.504 17.615 72.454 15.74 72.414 14.49C71.834 14.49 71.394 14.43 71.094 14.31L71.154 13.53ZM80.4783 13.2C81.4383 13.2 82.1333 13.44 82.5633 13.92C82.9933 14.39 83.2083 15.11 83.2083 16.08C83.2083 16.36 83.1683 17.66 83.0883 19.98L84.3483 20.1C84.3483 20.38 84.2633 20.68 84.0933 21H80.6433L80.5983 20.475C81.0583 20.315 81.5083 20.195 81.9483 20.115C81.8883 17.495 81.8333 16.04 81.7833 15.75C81.7433 15.45 81.6733 15.19 81.5733 14.97C81.4733 14.75 81.3233 14.595 81.1233 14.505C80.9233 14.415 80.6583 14.37 80.3283 14.37C79.6683 14.37 79.0283 14.53 78.4083 14.85C78.3483 17.13 78.3083 18.84 78.2883 19.98L79.5483 20.1C79.5483 20.38 79.4633 20.68 79.2933 21H75.8433L75.7983 20.475C76.2583 20.315 76.7083 20.195 77.1483 20.115C77.0883 17.575 77.0383 15.695 76.9983 14.475C76.4483 14.445 76.0083 14.385 75.6783 14.295L75.7383 13.515C76.2783 13.365 77.0633 13.29 78.0933 13.29C78.2133 13.47 78.3033 13.73 78.3633 14.07C78.7933 13.84 79.2233 13.64 79.6533 13.47C80.0933 13.29 80.3683 13.2 80.4783 13.2ZM87.1415 9.855C87.4515 9.855 87.6715 9.865 87.8015 9.885C87.8015 10.065 87.7715 10.3 87.7115 10.59C87.6615 10.87 87.6265 11.035 87.6065 11.085C87.6065 11.305 87.5965 11.76 87.5765 12.45C87.5565 13.14 87.5465 13.675 87.5465 14.055C87.9765 13.825 88.4015 13.625 88.8215 13.455C89.2515 13.285 89.5215 13.2 89.6315 13.2C90.5915 13.2 91.2865 13.44 91.7165 13.92C92.1465 14.39 92.3615 15.11 92.3615 16.08C92.3615 16.36 92.3215 17.66 92.2415 19.98L93.5015 20.1C93.5015 20.38 93.4165 20.68 93.2465 21H89.7965L89.7515 20.475C90.2115 20.315 90.6615 20.195 91.1015 20.115C91.0415 17.495 90.9865 16.04 90.9365 15.75C90.8965 15.45 90.8265 15.19 90.7265 14.97C90.6265 14.75 90.4765 14.595 90.2765 14.505C90.0765 14.415 89.8115 14.37 89.4815 14.37C88.8015 14.37 88.1515 14.53 87.5315 14.85L87.4415 19.98L88.7015 20.1C88.7015 20.38 88.6165 20.68 88.4465 21H84.9965L84.9515 20.475C85.4115 20.315 85.8615 20.195 86.3015 20.115L86.1215 11.04C85.5715 11.01 85.1315 10.95 84.8015 10.86L84.8615 10.08C85.3715 9.93 86.1315 9.855 87.1415 9.855ZM97.7643 20.28C98.6043 20.28 99.1693 20.02 99.4593 19.5C99.7593 18.97 99.9093 18.22 99.9093 17.25C99.9093 15.71 99.5693 14.745 98.8893 14.355C98.6093 14.195 98.2143 14.115 97.7043 14.115C97.2043 14.115 96.7293 14.22 96.2793 14.43C95.8793 15.2 95.6793 16.095 95.6793 17.115C95.6793 18.095 95.8093 18.85 96.0693 19.38C96.3693 19.98 96.9343 20.28 97.7643 20.28ZM94.2993 17.25C94.2993 15.98 94.5893 14.99 95.1693 14.28C95.7493 13.56 96.6443 13.2 97.8543 13.2C99.0643 13.2 99.9393 13.53 100.479 14.19C101.019 14.84 101.289 15.805 101.289 17.085C101.289 18.365 100.999 19.37 100.419 20.1C99.8493 20.83 98.9793 21.195 97.8093 21.195C96.6393 21.195 95.7593 20.855 95.1693 20.175C94.5893 19.495 94.2993 18.52 94.2993 17.25ZM22.6816 31.535L24.2566 39.98L25.6216 40.115C25.6216 40.385 25.5366 40.68 25.3666 41H21.9166L21.8716 40.475C22.1716 40.345 22.5416 40.24 22.9816 40.16L21.3766 31.745L19.3966 40.28H17.9116L15.1816 31.715L13.9666 39.98L15.2416 40.1C15.2416 40.38 15.1566 40.68 14.9866 41H11.5366L11.4916 40.475C11.9316 40.315 12.3716 40.195 12.8116 40.115L14.1316 31.415C13.5216 31.325 13.0366 31.22 12.6766 31.1L12.7366 30.5H16.2316L18.6166 38.72H18.6766L20.5366 30.5H23.8816C24.0516 30.82 24.1366 31.13 24.1366 31.43C23.4866 31.5 23.0016 31.535 22.6816 31.535ZM32.4118 36.095L32.3368 39.965C32.7668 39.995 33.1968 40.065 33.6268 40.175L33.5968 40.7C33.4368 40.78 33.1468 40.87 32.7268 40.97C32.3168 41.06 31.9118 41.105 31.5118 41.105C31.3318 40.745 31.2318 40.4 31.2118 40.07C30.0718 40.82 29.2718 41.195 28.8118 41.195C28.1018 41.195 27.5318 41.005 27.1018 40.625C26.6718 40.245 26.4568 39.715 26.4568 39.035C26.4568 37.465 27.4168 36.655 29.3368 36.605C30.4568 36.575 31.0218 36.56 31.0318 36.56L31.0168 36.05C30.9968 35.36 30.8668 34.865 30.6268 34.565C30.3868 34.255 29.9568 34.1 29.3368 34.1C29.0768 34.1 28.7968 34.16 28.4968 34.28L28.1368 35.78C28.0868 35.79 28.0018 35.795 27.8818 35.795L27.2668 35.75C27.1068 35.32 27.0218 34.725 27.0118 33.965C27.2018 33.865 27.6368 33.715 28.3168 33.515C28.9968 33.305 29.4318 33.2 29.6218 33.2C30.6418 33.2 31.3618 33.425 31.7818 33.875C32.2018 34.325 32.4118 35.065 32.4118 36.095ZM29.1418 40.175C29.4318 40.175 30.1018 39.85 31.1518 39.2L31.0768 37.325C30.3968 37.385 29.8268 37.44 29.3668 37.49C28.9068 37.54 28.5368 37.675 28.2568 37.895C27.9768 38.105 27.8368 38.44 27.8368 38.9C27.8368 39.75 28.2718 40.175 29.1418 40.175ZM39.0727 34.46C39.0227 34.41 38.9127 34.385 38.7427 34.385C38.5727 34.385 38.3177 34.445 37.9777 34.565C37.6477 34.685 37.3477 34.825 37.0777 34.985C37.0177 37.205 36.9777 38.87 36.9577 39.98L38.2177 40.1C38.2177 40.38 38.1327 40.68 37.9627 41H34.5127L34.4677 40.475C34.9277 40.315 35.3777 40.195 35.8177 40.115C35.7577 37.575 35.7077 35.695 35.6677 34.475C35.1177 34.445 34.6777 34.385 34.3477 34.295L34.4077 33.515C34.9377 33.365 35.7227 33.29 36.7627 33.29C36.9227 33.54 37.0227 33.86 37.0627 34.25C38.2127 33.55 38.8977 33.2 39.1177 33.2C39.3377 33.2 39.5927 33.245 39.8827 33.335C40.1727 33.415 40.3877 33.505 40.5277 33.605C40.5277 34.605 40.4327 35.42 40.2427 36.05C40.1027 36.09 39.9377 36.11 39.7477 36.11C39.5677 36.11 39.4427 36.105 39.3727 36.095L39.0727 34.46ZM47.236 36.095L47.161 39.965C47.591 39.995 48.021 40.065 48.451 40.175L48.421 40.7C48.261 40.78 47.971 40.87 47.551 40.97C47.141 41.06 46.736 41.105 46.336 41.105C46.156 40.745 46.056 40.4 46.036 40.07C44.896 40.82 44.096 41.195 43.636 41.195C42.926 41.195 42.356 41.005 41.926 40.625C41.496 40.245 41.281 39.715 41.281 39.035C41.281 37.465 42.241 36.655 44.161 36.605C45.281 36.575 45.846 36.56 45.856 36.56L45.841 36.05C45.821 35.36 45.691 34.865 45.451 34.565C45.211 34.255 44.781 34.1 44.161 34.1C43.901 34.1 43.621 34.16 43.321 34.28L42.961 35.78C42.911 35.79 42.826 35.795 42.706 35.795L42.091 35.75C41.931 35.32 41.846 34.725 41.836 33.965C42.026 33.865 42.461 33.715 43.141 33.515C43.821 33.305 44.256 33.2 44.446 33.2C45.466 33.2 46.186 33.425 46.606 33.875C47.026 34.325 47.236 35.065 47.236 36.095ZM43.966 40.175C44.256 40.175 44.926 39.85 45.976 39.2L45.901 37.325C45.221 37.385 44.651 37.44 44.191 37.49C43.731 37.54 43.361 37.675 43.081 37.895C42.801 38.105 42.661 38.44 42.661 38.9C42.661 39.75 43.096 40.175 43.966 40.175ZM53.972 33.2C54.932 33.2 55.627 33.44 56.057 33.92C56.487 34.39 56.702 35.11 56.702 36.08C56.702 36.36 56.662 37.66 56.582 39.98L57.842 40.1C57.842 40.38 57.757 40.68 57.587 41H54.137L54.092 40.475C54.552 40.315 55.002 40.195 55.442 40.115C55.382 37.495 55.327 36.04 55.277 35.75C55.237 35.45 55.167 35.19 55.067 34.97C54.967 34.75 54.817 34.595 54.617 34.505C54.417 34.415 54.152 34.37 53.822 34.37C53.162 34.37 52.522 34.53 51.902 34.85C51.842 37.13 51.802 38.84 51.782 39.98L53.042 40.1C53.042 40.38 52.957 40.68 52.787 41H49.337L49.292 40.475C49.752 40.315 50.202 40.195 50.642 40.115C50.582 37.575 50.532 35.695 50.492 34.475C49.942 34.445 49.502 34.385 49.172 34.295L49.232 33.515C49.772 33.365 50.557 33.29 51.587 33.29C51.707 33.47 51.797 33.73 51.857 34.07C52.287 33.84 52.717 33.64 53.147 33.47C53.587 33.29 53.862 33.2 53.972 33.2ZM60.6351 29.855C60.9451 29.855 61.1651 29.865 61.2951 29.885C61.2951 30.065 61.2651 30.3 61.2051 30.59C61.1551 30.87 61.1201 31.035 61.1001 31.085C61.1001 31.305 61.0901 31.76 61.0701 32.45C61.0501 33.14 61.0401 33.675 61.0401 34.055C61.4701 33.825 61.8951 33.625 62.3151 33.455C62.7451 33.285 63.0151 33.2 63.1251 33.2C64.0851 33.2 64.7801 33.44 65.2101 33.92C65.6401 34.39 65.8551 35.11 65.8551 36.08C65.8551 36.36 65.8151 37.66 65.7351 39.98L66.9951 40.1C66.9951 40.38 66.9101 40.68 66.7401 41H63.2901L63.2451 40.475C63.7051 40.315 64.1551 40.195 64.5951 40.115C64.5351 37.495 64.4801 36.04 64.4301 35.75C64.3901 35.45 64.3201 35.19 64.2201 34.97C64.1201 34.75 63.9701 34.595 63.7701 34.505C63.5701 34.415 63.3051 34.37 62.9751 34.37C62.2951 34.37 61.6451 34.53 61.0251 34.85L60.9351 39.98L62.1951 40.1C62.1951 40.38 62.1101 40.68 61.9401 41H58.4901L58.4451 40.475C58.9051 40.315 59.3551 40.195 59.7951 40.115L59.6151 31.04C59.0651 31.01 58.6251 30.95 58.2951 30.86L58.3551 30.08C58.8651 29.93 59.6251 29.855 60.6351 29.855ZM71.6029 40.16C72.0429 40.16 72.7329 39.95 73.6729 39.53C73.8629 39.79 73.9629 40.02 73.9729 40.22C73.4629 40.52 72.9629 40.755 72.4729 40.925C71.9829 41.095 71.6329 41.18 71.4229 41.18C70.2629 41.18 69.3779 40.835 68.7679 40.145C68.1579 39.445 67.8529 38.47 67.8529 37.22C67.8529 35.97 68.1479 34.99 68.7379 34.28C69.3379 33.56 70.2329 33.2 71.4229 33.2C72.3429 33.2 73.0429 33.53 73.5229 34.19C74.0129 34.85 74.2579 35.735 74.2579 36.845C74.1779 36.985 74.1129 37.08 74.0629 37.13L69.2329 37.055C69.2429 38.065 69.4179 38.835 69.7579 39.365C70.1079 39.895 70.7229 40.16 71.6029 40.16ZM72.8929 36.2C72.8929 35.54 72.7729 35.03 72.5329 34.67C72.2929 34.3 71.8929 34.115 71.3329 34.115C70.7729 34.115 70.2729 34.22 69.8329 34.43C69.5329 35.03 69.3429 35.645 69.2629 36.275C70.0529 36.265 71.2629 36.24 72.8929 36.2ZM80.1487 33.2C81.1087 33.2 81.8037 33.44 82.2337 33.92C82.6637 34.39 82.8787 35.11 82.8787 36.08C82.8787 36.36 82.8387 37.66 82.7587 39.98L84.0187 40.1C84.0187 40.38 83.9337 40.68 83.7637 41H80.3137L80.2687 40.475C80.7287 40.315 81.1787 40.195 81.6187 40.115C81.5587 37.495 81.5037 36.04 81.4537 35.75C81.4137 35.45 81.3437 35.19 81.2437 34.97C81.1437 34.75 80.9937 34.595 80.7937 34.505C80.5937 34.415 80.3287 34.37 79.9987 34.37C79.3387 34.37 78.6987 34.53 78.0787 34.85C78.0187 37.13 77.9787 38.84 77.9587 39.98L79.2187 40.1C79.2187 40.38 79.1337 40.68 78.9637 41H75.5137L75.4687 40.475C75.9287 40.315 76.3787 40.195 76.8187 40.115C76.7587 37.575 76.7087 35.695 76.6687 34.475C76.1187 34.445 75.6787 34.385 75.3487 34.295L75.4087 33.515C75.9487 33.365 76.7337 33.29 77.7637 33.29C77.8837 33.47 77.9737 33.73 78.0337 34.07C78.4637 33.84 78.8937 33.64 79.3237 33.47C79.7637 33.29 80.0387 33.2 80.1487 33.2ZM85.9569 40.04C86.3069 40.19 86.7319 40.265 87.2319 40.265C87.7419 40.265 88.1419 40.17 88.4319 39.98C88.7219 39.79 88.8669 39.53 88.8669 39.2C88.8669 38.87 88.7319 38.595 88.4619 38.375C88.1919 38.155 87.8619 37.96 87.4719 37.79C87.0819 37.62 86.6919 37.44 86.3019 37.25C85.9119 37.06 85.5819 36.81 85.3119 36.5C85.0419 36.19 84.9069 35.83 84.9069 35.42C84.9069 34.73 85.1369 34.19 85.5969 33.8C86.0569 33.4 86.6919 33.2 87.5019 33.2C88.3219 33.2 89.0919 33.385 89.8119 33.755C89.8219 33.855 89.8269 34.125 89.8269 34.565C89.8269 34.995 89.7819 35.365 89.6919 35.675C89.4519 35.755 89.1669 35.795 88.8369 35.795L88.3419 34.265C88.1219 34.155 87.8219 34.1 87.4419 34.1C87.0719 34.1 86.7769 34.2 86.5569 34.4C86.3369 34.59 86.2269 34.835 86.2269 35.135C86.2269 35.425 86.3619 35.68 86.6319 35.9C86.9119 36.12 87.2469 36.32 87.6369 36.5C88.0269 36.67 88.4169 36.855 88.8069 37.055C89.1969 37.245 89.5269 37.5 89.7969 37.82C90.0769 38.13 90.2169 38.49 90.2169 38.9C90.2169 39.62 89.9369 40.185 89.3769 40.595C88.8269 40.995 88.1469 41.195 87.3369 41.195C86.8969 41.195 86.4269 41.125 85.9269 40.985C85.4269 40.835 85.0069 40.645 84.6669 40.415C84.6669 39.745 84.7269 39.15 84.8469 38.63C85.0769 38.59 85.3869 38.57 85.7769 38.57L85.9569 40.04ZM95.3041 40.16C95.7441 40.16 96.4341 39.95 97.3741 39.53C97.5641 39.79 97.6641 40.02 97.6741 40.22C97.1641 40.52 96.6641 40.755 96.1741 40.925C95.6841 41.095 95.3341 41.18 95.1241 41.18C93.9641 41.18 93.0791 40.835 92.4691 40.145C91.8591 39.445 91.5541 38.47 91.5541 37.22C91.5541 35.97 91.8491 34.99 92.4391 34.28C93.0391 33.56 93.9341 33.2 95.1241 33.2C96.0441 33.2 96.7441 33.53 97.2241 34.19C97.7141 34.85 97.9591 35.735 97.9591 36.845C97.8791 36.985 97.8141 37.08 97.7641 37.13L92.9341 37.055C92.9441 38.065 93.1191 38.835 93.4591 39.365C93.8091 39.895 94.4241 40.16 95.3041 40.16ZM96.5941 36.2C96.5941 35.54 96.4741 35.03 96.2341 34.67C95.9941 34.3 95.5941 34.115 95.0341 34.115C94.4741 34.115 93.9741 34.22 93.5341 34.43C93.2341 35.03 93.0441 35.645 92.9641 36.275C93.7541 36.265 94.9641 36.24 96.5941 36.2Z" fill="black"/>
</svg>
